<?xml version="1.0" encoding="utf-8"?>
<svg version="1.1" xmlns="http://www.w3.org/2000/svg" xmlns:xlink="http://www.w3.org/1999/xlink" height="15.000001098536067" width="13.894091677113096">
  <defs>
    <path id="path-1" opacity="1" fill-rule="evenodd" d="M13.71979808807373,11.108473777770996 C13.050426483154297,10.347414016723633 11.733417510986328,9.901275634765625 11.733417510986328,6.493377208709717 C11.733417510986328,2.9955012798309326 9.942631721496582,1.5896027088165283 8.273550033569336,1.2521870136260986 C8.117074012756348,1.2184454202651978 8.004063606262207,1.1734566688537598 8.004063606262207,1.0309922695159912 L8.004063606262207,0.9222695231437683 C8.004063606262207,0.42364412546157837 7.534634113311768,0 6.934807777404785,0 C6.361061096191406,0 5.891631603240967,0.42364412546157837 5.891631603240967,0.9222695231437683 L5.891631603240967,1.0309922695159912 C5.891631603240967,1.1697076559066772 5.778621196746826,1.2184454202651978 5.62214469909668,1.2521870136260986 C3.948716640472412,1.5933517217636108 2.1622776985168457,2.9955012798309326 2.1622776985168457,6.493377208709717 C2.1622776985168457,9.901275634765625 0.8452680706977844,10.34366512298584 0.17589685320854187,11.108473777770996 C-0.2544132471084595,11.599600791931152 0.15416401624679565,12.300675392150879 0.867000937461853,12.300675392150879 L13.041733741760254,12.300675392150879 C13.741531372070312,12.300675392150879 14.145761489868164,11.59585189819336 13.71979808807373,11.108473777770996 L1.8884440660476685,11.325919151306152 L12.024637222290039,11.325919151306152 L12.159380912780762,11.070982933044434 C11.850774765014648,10.771058082580566 11.50739574432373,10.369908332824707 11.224868774414062,9.800050735473633 C10.807598114013672,8.952762603759766 10.603309631347656,7.869283199310303 10.603309631347656,6.493377208709717 C10.603309631347656,5.094976425170898 10.299050331115723,4.000250339508057 9.694877624511719,3.2391905784606934 C9.155902862548828,2.55686092376709 8.482185363769531,2.298175573348999 8.01275634765625,2.20444917678833 C7.717189788818359,2.1444640159606934 7.417276382446289,2.016995906829834 7.195601463317871,1.8032993078231812 C7.056511878967285,1.6683330535888672 6.817450523376465,1.6758311986923218 6.6783599853515625,1.8107974529266357 C6.495804786682129,1.9870034456253052 6.235010147094727,2.129467725753784 5.869898796081543,2.20444917678833 C5.400469779968262,2.298175573348999 4.726752281188965,2.55686092376709 4.187777519226074,3.2391905784606934 C3.5836050510406494,4.000250339508057 3.2793455123901367,5.094976425170898 3.2793455123901367,6.493377208709717 C3.2793455123901367,7.869283199310303 3.075056791305542,8.952762603759766 2.6577863693237305,9.800050735473633 C2.3839526176452637,10.358660697937012 2.049267053604126,10.752312660217285 1.7450073957443237,11.052237510681152 C1.636343240737915,11.16096019744873 1.7232745885849,11.325919151306152 1.8884440660476685,11.325919151306152 L8.403947830200195,13.0129976272583 C8.13880729675293,13.0129976272583 7.908438682556152,13.17045783996582 7.851933479309082,13.395401954650879 C7.808467864990234,13.564109802246094 7.734576225280762,13.702825546264648 7.6346049308776855,13.804049491882324 C7.578099727630615,13.860285758972168 7.412930011749268,14.02524471282959 6.934807777404785,14.02524471282959 C6.456685543060303,14.02524471282959 6.291515827178955,13.856536865234375 6.235010623931885,13.804049491882324 C6.135039329528809,13.702825546264648 6.061147689819336,13.564109802246094 6.017682075500488,13.395401954650879 C5.961176872253418,13.17045783996582 5.730808734893799,13.0129976272583 5.465668201446533,13.0129976272583 C5.10055685043335,13.0129976272583 4.835416316986084,13.305424690246582 4.913654327392578,13.609098434448242 C5.130982875823975,14.44513988494873 5.826433181762695,15.000000953674316 6.934807777404785,15.000000953674316 C8.043182373046875,15.000000953674316 8.738633155822754,14.448888778686523 8.955961227416992,13.609098434448242 C9.034198760986328,13.305424690246582 8.7647123336792,13.0129976272583 8.403947830200195,13.0129976272583 L13.71979808807373,11.108473777770996Z"/>
  </defs>
  <g opacity="1">
    <use xlink:href="#path-1" fill="rgb(79,79,79)" fill-opacity="1"/>
  </g>
</svg>