<?xml version="1.0" encoding="utf-8"?>
<svg version="1.1" xmlns="http://www.w3.org/2000/svg" xmlns:xlink="http://www.w3.org/1999/xlink" height="15" width="15.781250014901161">
  <defs>
    <path id="path-1" opacity="1" fill-rule="evenodd" d="M10.106758132576942,5.231758117675781 L15.781250014901161,5.7191009521484375 L11.476914420723915,9.450546264648438 L12.766797080636024,15 L7.890625014901161,12.058048248291016 L3.014101520180702,15 L4.304375186562538,9.450508117675781 L1.4901161193847656e-8,5.7191009521484375 L5.674101367592812,5.2317962646484375 L7.890625014901161,0 L10.106758132576942,5.231758117675781 L7.890625014901161,10.598125457763672 L8.536367431282997,10.987735748291016 L10.879491820931435,12.4013671875 L10.259374633431435,9.733438491821289 L10.088789001107216,8.999530792236328 L10.658164039254189,8.505937576293945 L12.72820283472538,6.7114458084106445 L9.99984361231327,6.47714900970459 L9.24953080713749,6.41269588470459 L8.955780997872353,5.719297409057617 L7.890546813607216,3.2044925689697266 L6.825078025460243,5.7193756103515625 L6.531289115548134,6.4127349853515625 L5.781054511666298,6.4771881103515625 L3.053085818886757,6.711484909057617 L5.123164191842079,8.505977630615234 L5.6925783306360245,8.999610900878906 L5.521914020180702,9.733592987060547 L4.901640430092812,12.401405334472656 L7.244921699166298,10.987695693969727 L7.890625014901161,10.598125457763672 L10.106758132576942,5.231758117675781Z"/>
  </defs>
  <g opacity="1">
    <use xlink:href="#path-1" fill="rgb(79,79,79)" fill-opacity="1"/>
  </g>
</svg>