<?xml version="1.0" encoding="utf-8"?>
<svg version="1.1" xmlns="http://www.w3.org/2000/svg" xmlns:xlink="http://www.w3.org/1999/xlink" height="26.52847258210886" width="26.77123087850356">
  <defs>
    <path id="path-1" opacity="1" fill-rule="evenodd" d="M13.385615439251826,26.528472582108886 C16.123710677347017,26.528472582108826 16.123710677347212,21.177631354993526 16.123710677347017,17.766567820204184 C16.123710677346985,17.218948772585097 15.590026719901276,16.12371067734705 13.385615439251826,16.12371067734705 C11.185141022991624,16.12371067734705 10.64752020115651,17.21894877258514 10.64752020115651,17.76656782020419 C10.64752020115651,21.052282105918497 10.64752020115651,26.528472582108947 13.385615439251826,26.528472582108886Z"/>
    <ellipse id="ellipse-2" opacity="1" rx="2.738095238095253" ry="2.738095238095254" cx="13.385615439251763" cy="12.290377344013748"/>
    <path id="path-3" opacity="1" fill-rule="evenodd" d="M8.934015430167776,22.18119619843562 C5.727753016785302,20.553817855835543 3.5284725821088627,17.224524784117463 3.5284725821088614,13.385615439251778 C3.5284725821088614,7.945310197810888 7.945310197810894,3.528472582108863 13.385615439251792,3.5284725821088614 C18.82592068069269,3.5284725821088614 23.242758296394726,7.945310197810888 23.242758296394726,13.385615439251776 C23.242758296394726,17.206882921733182 21.063645178623723,20.523207292669603 17.88135505714484,22.15865243799794 "/>
    <path id="path-4" opacity="1" fill-rule="evenodd" d="M8.945351823782303,18.228281289400886 C7.635699730493323,17.026669018429445 6.814186867823197,15.301322524362607 6.814186867823196,13.385615439251657 C6.814186867823196,9.758745278291084 9.758745278291205,6.814186867823083 13.385615439251787,6.814186867823082 C17.012485600212372,6.814186867823082 19.95704401068038,9.758745278291084 19.95704401068038,13.385615439251655 C19.95704401068038,15.29007699469006 19.14514768281601,17.006406298204286 17.848892173323854,18.207066203557744 "/>
  </defs>
  <g opacity="1">
    <g opacity="1">
      <use xlink:href="#path-1" fill="rgb(244,170,0)" fill-opacity="1"/>
    </g>
    <g opacity="1">
      <use xlink:href="#ellipse-2" fill="rgb(244,170,0)" fill-opacity="1"/>
    </g>
    <g opacity="1">
      <use xlink:href="#path-3" fill-opacity="0" stroke="rgb(244,170,0)" stroke-opacity="1" stroke-width="1.5" stroke-linecap="round" stroke-linejoin="miter"/>
    </g>
    <g opacity="1">
      <use xlink:href="#path-4" fill-opacity="0" stroke="rgb(244,170,0)" stroke-opacity="1" stroke-width="1.5" stroke-linecap="round" stroke-linejoin="miter"/>
    </g>
  </g>
</svg>