<svg xmlns="http://www.w3.org/2000/svg" xmlns:xlink="http://www.w3.org/1999/xlink" width="22" height="24.2" viewBox="0 0 22 24.2">
  <defs>
    <path id="path-1" fill-rule="evenodd" d="M15.44399989 17.4349991c.5720005-.51700019 1.3199997-.84700011 2.15600013-.84700011 1.77099991 0 3.2119999 1.44100189 3.2119999 3.2120018 0 1.7709999-1.44099999 3.21199989-3.2119999 3.21199989-1.7709999 0-3.21199989-1.44099998-3.21199989-3.2119999 0-.24200057.033-.48400115.0880003-.71500015l-7.83200026-4.5760002c-.59400034.54999923-1.375.89099978-2.24399996.89099978-1.82600033 0-3.30000019-1.47399997-3.30000019-3.30000019 0-1.82600021 1.47399986-3.29999971 3.3000002-3.29999971.86899995 0 1.64999961.34100008 2.24399995.89099932l7.75499964-4.52099943c-.05499935-.25300026-.09899998-.50600005-.09899998-.76999999 0-1.82600033 1.47399998-3.30000019 3.3000002-3.30000019 1.8260002 0 3.29999923 1.47399986 3.29999923 3.3000002 0 1.82599973-1.47399902 3.2999997-3.29999924 3.2999997-.86900138 0-1.64999961-.34100007-2.24400043-.89099979l-7.75499964 4.52099944c.0550003.25300026.09899998.50600051.09899998.77000045 0 .26399994-.04399967.5170002-.09899998.77000046l7.84299994 4.56499863zM18.7000004 4.40000022c0-.60500001-.49500084-1.10000038-1.10000039-1.10000038-.60499954 0-1.10000038.49500037-1.10000038 1.10000038 0 .60500002.49500084 1.0999999 1.10000038 1.0999999.60499955 0 1.10000039-.49499988 1.10000039-1.0999999zM4.4000002 13.19999945c-.60500001 0-1.10000038-.49499988-1.10000038-1.09999943 0-.6050005.49500037-1.10000038 1.10000038-1.10000038.60500002 0 1.0999999.49499989 1.0999999 1.10000038 0 .60499955-.49499988 1.09999943-1.0999999 1.09999943zm12.09999943 6.6220007c0 .60499954.49500084 1.10000038 1.10000038 1.10000038.60499955 0 1.10000039-.49500084 1.10000039-1.10000038 0-.60499955-.49500084-1.10000039-1.10000039-1.10000039-.60499954 0-1.10000038.49500084-1.10000038 1.10000039z"/>
    <mask id="mask-2" maskContentUnits="userSpaceOnUse" maskUnits="userSpaceOnUse">
      <rect width="22" height="24.2" x="0" y="0" fill="black"/>
      <use fill="white" xlink:href="#path-1"/>
    </mask>
  </defs>
  <g>
    <use fill="none" xlink:href="#path-1"/>
    <g mask="url(#mask-2)">
      <rect width="20" height="22" x="1" y="1.1" fill="rgb(255,255,255)" rx="0" ry="0"/>
    </g>
  </g>
</svg>
