<?xml version="1.0" encoding="utf-8"?>
<svg version="1.1" xmlns="http://www.w3.org/2000/svg" xmlns:xlink="http://www.w3.org/1999/xlink" height="15" width="15">
  <defs>
    <path id="path-1" opacity="1" fill-rule="evenodd" d="M7.5,13.5 C10.799891471862793,13.5 13.5,10.799927711486816 13.5,7.5 C13.5,7 15,7 15,7.5 C15,11.625 11.625,15 7.5,15 C3.375,15 0,11.625 0,7.5 C0,3.375 3.375,0 7.5,0 C8.512572288513184,0 9.5,0.25 10.3125,0.5625 C10.75,0.75 10,2 9.150144577026367,1.7250360250473022 C8.625,1.575072169303894 8.0625,1.5 7.5,1.5 C4.200072288513184,1.5 1.5,4.200072288513184 1.5,7.5 C1.5,10.799927711486816 4.200108051300049,13.5 7.5,13.5 L13.200072288513184,1.950072169303894 C11.5,3.75 6.75,8.362427711486816 6.75,8.362427711486816 L4.424927711486816,6.075072288513184 C4,5.75 3,6.75 3.375,7.125 L6.75,10.5 L14.25,3 C14.75,2.5 13.75,1.5 13.200072288513184,1.950072169303894 L7.5,13.5Z"/>
  </defs>
  <g opacity="1">
    <g opacity="1">
      <use xlink:href="#path-1" fill="rgb(0,96,150)" fill-opacity="1"/>
    </g>
  </g>
</svg>