<svg xmlns="http://www.w3.org/2000/svg" xmlns:xlink="http://www.w3.org/1999/xlink" width="15" height="15" viewBox="0 0 15 15">
  <defs>
    <path id="path-1" fill-rule="evenodd" d="M14.6672355.34414107c-.44368601-.443686-1.16040956-.443686-1.60409557 0L7.5 5.89590444 1.93686007.3327645c-.443686-.44368601-1.16040956-.44368601-1.60409556 0-.44368601.443686-.44368601 1.16040955 0 1.60409556L5.89590444 7.5.3327645 13.06313993c-.44368601.443686-.44368601 1.16040956 0 1.60409556.443686.44368601 1.16040955.44368601 1.60409556 0L7.5 9.10409556l5.56313993 5.56313993c.443686.44368601 1.16040956.44368601 1.60409556 0 .44368601-.443686.44368601-1.16040955 0-1.60409556L9.10409556 7.5l5.56313993-5.56313993c.43230945-.43230944.43230945-1.16040956 0-1.592719z"/>
    <mask id="mask-2" maskContentUnits="userSpaceOnUse" maskUnits="userSpaceOnUse">
      <rect width="15" height="15" x="0" y="0" fill="black"/>
      <use fill="white" xlink:href="#path-1"/>
    </mask>
  </defs>
  <g>
    <use fill="none" xlink:href="#path-1"/>
    <g mask="url(#mask-2)">
      <rect width="20.478" height="20.478" x="0" y="0" fill="rgb(255,255,255)" fill-opacity=".5" rx="0" ry="0" transform="translate(-2.27531286 -3.41296928)"/>
    </g>
  </g>
</svg>
