<?xml version="1.0" encoding="utf-8"?>
<svg version="1.1" xmlns="http://www.w3.org/2000/svg" xmlns:xlink="http://www.w3.org/1999/xlink" height="15.000000000000057" width="16.158011418293313">
  <defs>
    <path id="path-1" opacity="1" fill-rule="evenodd" d="M14.519878560087566,8.082680805204204 C13.712016464344991,8.039402478646567 13.01956323942278,8.558742397338223 12.781532443355772,9.269228258326121 L11.378593357445672,9.269228258326121 L10.354339628914905,6.189254018307528 C10.274996030225903,5.951223222240517 10.054997870224577,5.7925360248625095 9.795327910878749,5.7925360248625095 C9.542871005959192,5.796142552075646 9.322872845957866,5.965649331093064 9.254348828908272,6.210893181586346 L7.649444219062529,11.81182994358737 L5.763230486592136,0.4837279671255459 C5.719952160034499,0.2132384261403065 5.489134418393762,0.011272902204661081 5.215038350195388,0.0004533205652516921 C4.940942281997014,-0.010366261074157845 4.699304958716868,0.1735666267958047 4.6307809416672745,0.4368431133547712 L2.7193215187049278,9.269228258326121 L0.5770443541018406,9.269228258326121 C0.2596699593458285,9.269228258326121 0,9.52889821767195 0,9.846272612427963 C0,10.163647007183979 0.2596699593458285,10.423316966529809 0.5770443541018406,10.423316966529809 L3.1737439475601237,10.423316966529809 C3.4370204341190886,10.423316966529809 3.6714447029729618,10.242990605872983 3.7327556655962817,9.986927173740288 L5.081596843309335,3.41583459140554 L6.931745303648361,14.520331880652899 C6.975023630205998,14.787214894425 7.198628317420463,14.985573891147508 7.5015766033239295,15.000000000000057 C7.757640035456621,15.000000000000057 7.984851249884221,14.83049322098264 8.056981794146951,14.581642843276219 L9.849425819075794,8.32071160127121 L10.415650591538224,10.02659897308479 C10.494994190227228,10.261023241938663 10.714992350228556,10.423316966529807 10.963842727934972,10.423316966529807 L12.806778133847727,10.423316966529807 C13.055628511554145,11.072491864894381 13.686770773853034,11.54134040260213 14.426108852546017,11.54134040260213 C15.399871200092873,11.54134040260213 16.186094132556633,10.737084834072684 16.15724191485154,9.75610943209955 C16.128389697146446,8.861690683241692 15.410690781732283,8.129565658974977 14.519878560087566,8.082680805204204Z"/>
  </defs>
  <g opacity="1">
    <use xlink:href="#path-1" fill="rgb(79,79,79)" fill-opacity="1"/>
  </g>
</svg>