<?xml version="1.0" encoding="utf-8"?>
<svg version="1.1" xmlns="http://www.w3.org/2000/svg" xmlns:xlink="http://www.w3.org/1999/xlink" height="15" width="19.089999999999975">
  <defs>
    <path id="path-1" opacity="1" fill-rule="evenodd" d="M12.231404017857084,3.0765580357142954 C12.951540178571369,3.8563504464285847 13.343566964285653,4.491263392857158 13.343566964285653,5.616209821428592 C13.343566964285653,5.944319196428592 13.092158482142796,6.212772321428594 12.78109374999994,6.212772321428594 C12.470029017857083,6.212772321428594 12.21862053571423,5.944319196428592 12.21862053571423,5.616209821428592 C12.21862053571423,4.879029017857159 11.937383928571371,4.2398549107143 11.408999999999946,3.7626049107142983 C10.906183035714234,3.306660714285725 10.228658482142809,3.059513392857152 9.50426116071424,3.059513392857152 C8.779863839285671,3.059513392857152 8.102339285714248,3.3109218750000107 7.599522321428534,3.7626049107142983 C7.071138392857107,4.235593750000015 6.789901785714251,4.879029017857159 6.789901785714251,5.616209821428592 C6.789901785714251,5.944319196428592 6.538493303571396,6.212772321428594 6.22742857142854,6.212772321428594 C5.916363839285685,6.212772321428594 5.664955357142828,5.944319196428592 5.664955357142828,5.616209821428592 C5.664955357142828,4.491263392857158 6.0527209821428265,3.8563504464285847 6.777118303571395,3.0765580357142954 C7.501515624999964,2.296765625000007 8.464537946428532,1.8663883928571476 9.499999999999956,1.8663883928571476 C10.535462053571376,1.866388392857147 11.498484374999945,2.29250446428572 12.231404017857084,3.0765580357142954Z"/>
    <path id="path-2" opacity="1" fill-rule="evenodd" d="M19.045,10.823348214285696 L19.045,11.330426339285696 C19.045,12.216747767857123 18.69984598214286,13.05193526785712 18.069194196428576,13.682587053571405 C17.43854241071429,14.313238839285692 16.60335491071428,14.662654017857118 15.721294642857142,14.662654017857118 L15.482669642857143,14.662654017857118 C15.312223214285712,14.662654017857118 15.141776785714285,14.72231026785712 15.018203125,14.837361607142833 C14.911674107142858,14.935368303571405 14.766794642857143,14.99928571428569 14.613392857142857,14.99928571428569 C14.285283482142857,14.99928571428569 14.016830357142858,14.73083258928569 14.016830357142858,14.398462053571404 L14.016830357142858,5.714216517857134 C14.016830357142858,4.512569196428563 13.543841517857144,3.379100446428565 12.687348214285716,2.5226071428571384 C11.83511607142857,1.6661138392857109 10.70164732142857,1.1931249999999975 9.5,1.1931249999999975 C8.302613839285716,1.1931249999999975 7.169145089285713,1.6661138392857116 6.312651785714285,2.5226071428571384 C5.4561584821428575,3.3791004464285663 4.983169642857143,4.512569196428564 4.983169642857143,5.714216517857134 L4.983169642857143,14.394200892857121 C4.983169642857143,14.726571428571408 4.714716517857142,14.995024553571406 4.386607142857144,14.995024553571406 C4.233205357142857,14.995024553571406 4.088325892857144,14.93110714285712 3.9817968750000006,14.83310044642855 C3.8582232142857142,14.718049107142834 3.6877767857142856,14.658392857142834 3.517330357142857,14.658392857142834 L3.278705357142857,14.658392857142834 C2.3966450892857143,14.658392857142834 1.5614575892857145,14.308977678571406 0.9308058035714286,13.678325892857123 C0.3001540178571429,13.047674107142836 -0.04499999999999993,12.21248660714284 -0.04499999999999993,11.326165178571411 L-0.04499999999999993,10.823348214285696 C-0.04499999999999993,9.93702678571427 0.3001540178571429,9.106100446428556 0.9308058035714286,8.475448660714271 C1.5614575892857145,7.844796874999989 2.392383928571429,7.499642857142845 3.278705357142857,7.499642857142845 L3.6195982142857144,7.499642857142845 C3.71334375,7.499642857142845 3.790044642857143,7.422941964285703 3.790044642857143,7.329196428571417 L3.790044642857143,5.7142165178571345 C3.790044642857143,4.1929821428571366 4.386607142857144,2.7612321428571387 5.468941964285714,1.6788973214285692 C6.547015624999999,0.596562499999999 7.978765624999999,0 9.5,0 C11.021234375,0 12.452984375,0.596562499999999 13.531058035714286,1.6831584821428538 C14.613392857142857,2.7654933035714233 15.209955357142858,4.1972433035714225 15.209955357142858,5.7184776785714195 L15.209955357142858,7.329196428571417 C15.209955357142858,7.422941964285703 15.28665625,7.499642857142845 15.380401785714286,7.499642857142845 L15.721294642857142,7.499642857142845 C16.607616071428573,7.499642857142845 17.43854241071429,7.844796874999989 18.069194196428576,8.475448660714271 C18.69984598214286,9.106100446428556 19.045,9.93702678571427 19.045,10.823348214285696Z"/>
  </defs>
  <g transform="translate(0.045000000000015916, 5.684341886080802e-14)" opacity="1">
    <g opacity="1">
      <g opacity="1">
        <use xlink:href="#path-1" fill="rgb(0,96,150)" fill-opacity="1"/>
      </g>
      <g opacity="1">
        <use xlink:href="#path-2" fill="rgb(0,96,150)" fill-opacity="1"/>
      </g>
    </g>
  </g>
</svg>